<svg xmlns="http://www.w3.org/2000/svg" version="1.1" xmlns:xlink="http://www.w3.org/1999/xlink" xmlns:svgjs="http://svgjs.dev/svgjs" width="1500" height="1500" viewBox="0 0 1500 1500"><rect width="1500" height="1500" fill="#000000"></rect><g transform="matrix(0.6666666666666666,0,0,0.6666666666666666,248.65079365079362,231.6666666666668)"><svg viewBox="0 0 240 248" data-background-color="#000000" preserveAspectRatio="xMidYMid meet" height="1550" width="1500" xmlns="http://www.w3.org/2000/svg" xmlns:xlink="http://www.w3.org/1999/xlink"><g id="tight-bounds" transform="matrix(1,0,0,1,0.32380952380952976,0.4000000000000057)"><svg viewBox="0 0 239.35238095238094 247.2" height="247.2" width="239.35238095238094"><g><svg viewBox="0 0 239.35238095238097 247.20000000000002" height="247.2" width="239.35238095238094"><g><svg viewBox="0 0 239.35238095238097 247.20000000000002" height="247.20000000000002" width="239.35238095238097"><g id="textblocktransform"><svg viewBox="0 0 239.35238095238097 247.20000000000002" height="247.20000000000002" width="239.35238095238097" id="textblock"><g><svg viewBox="0 0 239.35238095238097 247.20000000000002" height="247.20000000000002" width="239.35238095238097"><g transform="matrix(1,0,0,1,0,0)"><svg width="239.35238095238097" viewBox="1.22 -30.76 29.790000000000003 30.76" height="247.20000000000002" data-palette-color="url(#f844467b-da26-42d9-b6e4-c57942481508)"></svg></g></svg></g></svg></g></svg></g><g></g></svg></g><defs></defs><mask id="a0c4cacf-a89f-484c-b1d2-56ede756f746"><g id="SvgjsG3173"><svg viewBox="0 0 239.35238095238094 247.2" height="247.2" width="239.35238095238094"><g><svg viewBox="0 0 239.35238095238097 247.20000000000002" height="247.2" width="239.35238095238094"><g><svg viewBox="0 0 239.35238095238097 247.20000000000002" height="247.20000000000002" width="239.35238095238097"><g id="SvgjsG3172"><svg viewBox="0 0 239.35238095238097 247.20000000000002" height="247.20000000000002" width="239.35238095238097" id="SvgjsSvg3171"><g><svg viewBox="0 0 239.35238095238097 247.20000000000002" height="247.20000000000002" width="239.35238095238097"><g transform="matrix(1,0,0,1,0,0)"><svg width="239.35238095238097" viewBox="1.22 -30.76 29.790000000000003 30.76" height="247.20000000000002" data-palette-color="url(#f844467b-da26-42d9-b6e4-c57942481508)"><path d="M1.22 0L1.22-1.05Q2.83-1.37 3.8-1.78 4.76-2.2 4.76-2.54L4.76-2.54 4.76-28.2Q4.76-28.52 3.82-28.96 2.88-29.39 1.22-29.71L1.22-29.71 1.22-30.76 12.21-30.76 12.21-29.71Q10.57-29.37 9.62-28.96 8.67-28.54 8.67-28.2L8.67-28.2 8.67-17.21 23.56-17.21 23.56-28.2Q23.56-28.52 22.62-28.96 21.68-29.39 20.02-29.71L20.02-29.71 20.02-30.76 31.01-30.76 31.01-29.71Q29.37-29.37 28.42-28.96 27.47-28.54 27.47-28.2L27.47-28.2 27.47-2.54Q27.47-2.22 28.41-1.79 29.35-1.37 31.01-1.05L31.01-1.05 31.01 0 20.02 0 20.02-1.05Q21.63-1.37 22.6-1.78 23.56-2.2 23.56-2.54L23.56-2.54 23.56-15.01 8.67-15.01 8.67-2.54Q8.67-2.22 9.61-1.79 10.55-1.37 12.21-1.05L12.21-1.05 12.21 0 1.22 0Z" opacity="1" transform="matrix(1,0,0,1,0,0)" fill="white" class="wordmark-text-0" id="SvgjsPath3170"></path></svg></g></svg></g></svg></g></svg></g><g></g></svg></g><defs><mask></mask></defs></svg><rect width="239.35238095238094" height="247.2" fill="black" stroke="none" visibility="hidden"></rect></g></mask><linearGradient x1="0" x2="1" y1="0.578" y2="0.595" id="f844467b-da26-42d9-b6e4-c57942481508"><stop stop-color="#6ee2f5" offset="0"></stop><stop stop-color="#6454f0" offset="1"></stop></linearGradient><rect width="239.35238095238094" height="247.2" fill="url(#f844467b-da26-42d9-b6e4-c57942481508)" mask="url(#a0c4cacf-a89f-484c-b1d2-56ede756f746)" data-fill-palette-color="primary"></rect></svg><rect width="239.35238095238094" height="247.2" fill="none" stroke="none" visibility="hidden"></rect></g></svg></g></svg>